<svg viewBox="0 0 73.5 90" xmlns="http://www.w3.org/2000/svg" fill="#fff"><path d="M46.4 70.1v-2.8c0-5 2-9.7 5.5-13a22 22 0 10-30.5-.1c3.7 3.4 5.7 8.2 5.7 13v3c0 2.9 2.5 5.3 5.5 5.3H41c3 0 5.4-2.4 5.4-5.4zm-4 0c0 .8-.6 1.4-1.4 1.4h-8.4c-.8 0-1.5-.6-1.5-1.4v-2.8c0-6-2.5-11.8-6.9-16.1a18 18 0 1125 .1c-4.3 4.1-6.8 10-6.8 16V70zM43.3 77.5h-13a1.5 1.5 0 100 3h13a1.5 1.5 0 100-3zM44.8 83.8c0-.9-.7-1.5-1.5-1.5h-13a1.5 1.5 0 100 3h13c.8 0 1.5-.7 1.5-1.5zM1.5 38.3h8.6a1.5 1.5 0 100-3H1.5a1.5 1.5 0 100 3zM73.5 36.8c0-.9-.6-1.5-1.5-1.5h-8.6a1.5 1.5 0 100 3H72c.9 0 1.5-.7 1.5-1.5zM35.3 1.5v8.6a1.5 1.5 0 103 0V1.5a1.5 1.5 0 10-3 0zM60.6 10.8l-6 6a1.5 1.5 0 102 2.2l6.2-6.1a1.5 1.5 0 10-2.2-2.1zM19 54.5c-.6-.6-1.5-.6-2.1 0l-6.1 6.1a1.5 1.5 0 102 2.2l6.2-6.1c.6-.6.6-1.6 0-2.2zM16.9 19a1.5 1.5 0 002.1 0c.6-.6.6-1.5 0-2.1l-6.1-6.1a1.5 1.5 0 10-2.1 2z"/><path d="M60.6 62.8a1.5 1.5 0 002.2 0c.6-.6.6-1.6 0-2.2l-6.1-6a1.5 1.5 0 10-2.2 2zM41.5 88.5c0-.8-.6-1.5-1.5-1.5h-6.5a1.5 1.5 0 100 3H40c.9 0 1.5-.7 1.5-1.5z"/></svg>